<?xml version="1.0" encoding="utf-8"?>
<!-- Generator: Adobe Illustrator 24.3.0, SVG Export Plug-In . SVG Version: 6.00 Build 0)  -->
<svg version="1.1" id="Layer_1" xmlns="http://www.w3.org/2000/svg" xmlns:xlink="http://www.w3.org/1999/xlink" x="0px" y="0px"
	 viewBox="0 0 1920 1000" style="enable-background:new 0 0 1920 1000;" xml:space="preserve">
<style type="text/css">
	.st0{fill:none;stroke:#9EEF7D;stroke-width:4.8;stroke-linecap:round;stroke-linejoin:round;stroke-miterlimit:3.84;}
	.st1{fill:none;stroke:#9EEF7D;stroke-width:3.84;stroke-linecap:round;stroke-linejoin:round;stroke-miterlimit:3.84;}
</style>
<path class="st0" d="M1881.1,277.3c-10.3,0.9-20.5,2.1-30.7,3.7c-11.5,1.7-22.8,4.1-34.1,6.8c-14.8,3.6-29.2,8.6-43.2,14.5
	c-17.5,7.5-34.2,16.5-50,27.3c-29.4,20.2-54.5,44.6-75,73.9c-13.7,19.5-25,40.2-34.5,62c-11.4,26-20.2,52.8-25.9,80.6
	c-2.8,13.5-5.1,27.1-6.8,40.8c-1.3,10.6-2.5,21.1-3.9,31.7c-2.9,21.5-5.3,43.1-10.3,64.4c-4.1,17.3-9.1,34.1-18.4,49.4
	c-9.7,15.8-23.4,26.4-41.8,29.6c-16,2.8-30.8-1.6-44.6-9.9c-21.2-12.7-37.4-30.6-52.3-49.9c-13.1-17-25.3-34.9-40.8-49.9
	c-12.6-12.1-26.9-21.6-43.7-26.9c-10.2-3.2-20.6-4.7-31.2-4.7c-8.8,0-17.6,0.8-26.4,2.2c-16.2,2.5-31.7,7.2-47,12.6"/>
<path class="st0" d="M847.2,800c-0.3,1.9,0.9,3.2,2,4.3c9.8,9.6,21.2,16.1,35,18.3c18.1,2.9,35.5,0.1,52.3-6.3
	c14.5-5.5,28.8-11.7,43.2-17.7c12.3-5.1,24.6-10.2,37-15.4c20.6-8.6,41.2-17.4,61.9-25.9c27.7-11.4,55.2-23.5,83-34.7
	c16.2-6.5,31.9-14.3,48.1-20.9c18.8-7.7,37.6-15.7,56.1-24.1c2.7-1.2,5-2.8,7-5.2c-1.9-2.5-3.9-3.7-7-3.4
	c-6.1,0.5-12.2-0.5-18.3,0.9c-4.9,1.1-9.3,3.3-13.8,5.1c-21.1,8.4-41.9,17.6-63,26.2c-27.3,11.2-54.9,21.7-82,33.3
	c-22.5,9.6-45.2,18.7-67.8,28.1c-18,7.4-36,14.7-54.1,21.9c-14.6,5.8-28.9,12.4-43.8,17.6c-8.4,2.9-17.2,3.9-25.9,4.2
	c-7.4,0.2-15.4-0.3-21.9-3.9c-5.8-3.2-12.8-3.9-17.6-9.7c-4.8-5.8-10.4-11.1-13.7-17.9c-2.9-6-5.4-12.1-6.9-18.7
	c-1.1-4.6-0.6-9.7-3.2-13.9"/>
<path class="st0" d="M1230.2,537.9c-2,0-3.5-0.4-5.4-1.8c-8.4-6.1-17.1-11.7-25.8-17.4c-17.4-11.4-34.9-22.7-52.3-34.1
	c-34.1-22.4-68.2-44.8-102.2-67.2c-44.1-29-88.3-57.8-132-87.4c-4.3-2.9-8.7-5.7-12.9-8.7c-7.4-5.1-14.3-7.1-23.7-3.2
	c-15.8,6.6-32.5,11.1-48.8,16.7c-26.8,9.2-53.4,18.6-80.2,27.8c-27.2,9.4-54.4,18.5-81.5,28c-41.4,14.5-83,28.6-124.3,43.2
	c-10.5,3.7-18.9,11.3-25.3,20.1c-8.3,11.4-12.4,24.4-12.7,38.8c-0.6,28.7,11,51.7,32.8,69.5c39.1,32,78.6,63.5,118,95.1
	c30.5,24.5,61.1,49,91.7,73.4c21.9,17.5,43.8,34.9,65.8,52.3c7.1,5.6,14.9,10.1,23.5,13c2.2,0.7,4.5,1.5,6.7,0"/>
<path class="st0" d="M511.2,459.7c-9.7-5.3-19.3-10.8-30.2-13.5c-9.6-2.4-19.1-3.8-28.3,1c-10.9,5.6-14.1,15.9-15.8,26.9
	c-0.7,4.9-1.3,9.9-1,14.9c0.7,15.3,3.3,30.4,7.3,45.1c3.6,13.4,7.7,26.7,12,39.8c4.9,14.9,8.8,30.1,8.9,45.9
	c0.1,9.9-1.1,19.7-10.9,25.7c-6.5,3.9-13.7,4.2-20.6,3.2c-21.8-3.4-41.9-12-62-20.9c-23.6-10.4-46.7-21.8-70-32.8
	c-23.7-11.1-47.3-22.2-71.5-32.1c-17.5-7.2-35.2-14-53.3-19.7c-18.8-6-37.8-10.7-57.1-14.5c-19.9-3.9-39.9-3.9-60-3.6
	c-5.9,0.1-11.8,1.2-17.8,1.8"/>
<path class="st1" d="M1225.9,537.9c-4.2,4.1-9.9,5-14.9,7.1c-13.9,5.8-28.1,11-42.2,16.5c-19.5,7.6-39,15.4-58.6,23
	c-18.7,7.4-37.4,14.8-56.2,22.1c-23,9-46.1,17.9-69.1,26.9c-18.6,7.3-37.1,14.8-55.7,22.1c-14.9,5.8-29.9,11.1-44.6,17.4
	c-13,5.6-26.3,11.1-37.1,20.9c-1.4,1.2-2.6,2.6-3.7,4c-2.4,3-1.2,6.6,2.3,8.6c6.1,3.3,5.9,3.1,11.6-1.9c7.8-6.9,17.1-11.9,26.4-16.2
	c12.9-6,26.1-11.1,39.3-16.4c18.7-7.5,37.4-14.8,56.1-22.1c15.2-5.9,30.4-11.7,45.6-17.8c22.4-8.9,44.8-17.6,67.3-26.1
	c20.7-7.9,41.4-15.8,62.2-23.5c21.7-8,43.2-16.7,64.8-24.8c1.8-0.7,3.4-1.4,5.3-0.9"/>
<path class="st1" d="M1237.9,655c-5,0.8-9.3,3.4-13.9,5.3c-26.4,10.6-52.8,21-79.2,31.7c-17.8,7.2-35.4,15.1-53.3,21.9
	c-20.4,7.8-40.6,16.1-60.9,24.2c-30,11.9-59.7,24.7-89.8,36.3c-19,7.3-37.7,15.4-57.5,20.5c-3.7,1-8.1,0.4-11.1,3.6"/>
<path class="st0" d="M512.2,460.6c12.2,7.6,23.2,16.7,34.5,25.5c31.8,24.7,63.4,49.6,95.1,74.4c31.3,24.5,62.7,49,94.1,73.4
	c31.2,24.3,62.4,48.6,93.6,73c8.5,6.6,9.9,12,6.3,22.1c-0.6,1.8-0.6,3.8-1,5.7c-0.7,3.2-1.5,6.2-3.1,9.2c-2.3,4.4-2.6,9.8-2,14.8
	c1.1,9.5,3.4,18.7,7.4,27.4c1.5,3.2,4,5.8,4.6,9.5c0.5,2.7,3.4,4.1,6.1,3.8c4.8-0.5,10,2.1,14.4-1.8"/>
<path class="st1" d="M1219.2,635.4c-8.5,3.5-16.9,7.2-25.5,10.5c-18.5,7.3-37.1,14.4-55.7,21.6c-20.4,8-40.9,15.9-61.4,23.6
	c-17.1,6.4-34.3,12.7-51.4,19.2c-38.4,14.6-77.4,27.7-116.2,41.1c-2.6,0.9-5.7,2.3-8.6,0.5c-1.3-0.8-1.3,0.3-2,0.5
	c-5.9,2.1-11.8,4.2-17.8,6.3"/>
<path class="st1" d="M1173.6,595.5c-10.5,2.5-20,7.8-30.2,11.2c-3.8,1.3-7.2,2.5-11.5,2.7c-5.3,0.2-10.6,3.4-15.9,5.4
	c-26.2,9.7-52.5,19.6-78.7,29.3c-32.5,12-64.9,24.6-97.4,36.7c-20.4,7.6-40.7,15.4-61,23.3c-5.9,2.3-12.1,3-18.2,4.3
	c-1.4,0.3-2.6-0.3-3.8-0.9"/>
<path class="st1" d="M1135.7,610.4c-3.2,5.6-9.5,6.2-14.5,8.4c-16.2,7.4-32.9,13.9-49.3,20.9c-17.8,7.5-35.5,15-53.3,22.6
	c-18.9,8-37.8,16-56.6,24c-21.6,9.2-43.3,18.4-64.7,28c-4.9,2.2-10.8,3.1-14.1,8.4c-0.9,1.5-3.3,1.1-5.2,1"/>
<path class="st0" d="M1090.1,660.8c-9,2.1-18.3,2.8-26.9,6.7c-8.6,3.9-17.6,6.7-26.4,10c-20.6,7.5-41.5,14.4-62.4,21.2
	c-18.2,6-36.4,11.8-54.7,17.2c-9.9,2.9-20.2,4.8-30.2,7.4c-2.1,0.6-3.6-0.2-5.3-0.6"/>
<path class="st1" d="M1083.4,663.7c-1.2,2.5-3.4,3.7-5.8,4.8c-24.5,12.3-49.3,24-74.3,35.2c-14,6.2-27.9,12.7-41.9,18.9
	c-18.6,8.2-37,17-56.1,24.2c-1.8,0.7-4.1,1.4-4.8,3.7"/>
<path class="st0" d="M1228.3,555.2c-1.1,0-2-0.1-2.4,1.4c-1.9,6.8-6.7,12-9.5,18.3c-3.8,8.4-6.4,17.2-6.7,26.4
	c-0.5,17,6.4,31.3,17.6,43.7c2.9,3.2,6.7,5.5,8.7,9.6"/>
<path class="st0" d="M851,709.3c-3.6,5.1-8,9.5-12.5,13.9"/>
</svg>
