<?xml version="1.0" encoding="utf-8"?>
<!-- Generator: Adobe Illustrator 24.3.0, SVG Export Plug-In . SVG Version: 6.00 Build 0)  -->
<svg version="1.1" id="Layer_1" xmlns="http://www.w3.org/2000/svg" xmlns:xlink="http://www.w3.org/1999/xlink" x="0px" y="0px"
	 viewBox="0 0 1920 1080" style="enable-background:new 0 0 1920 1080;" xml:space="preserve">
<style type="text/css">
	.st0{fill:none;stroke:#F0806C;stroke-width:6;stroke-linecap:round;stroke-linejoin:round;}
	.st1{fill:none;stroke:#F0806C;stroke-width:11;stroke-linecap:round;stroke-linejoin:round;}
</style>
<path class="st0" d="M625.5,383.8C643,372,665,375,685,371c7,21,15,41,22,63c6,23,9,45,12,68c2,18,2,36,0,54c-2,19-10,38-3,57
	c3,11,14,16,25,20c47,13,95,11,143,9c75-2,147-7,223-19c28-5,53-9,81-16c1,0,3-2,4-2c30-7,57-15,83-31c9-6,16-12,24-19
	c10-11,22-21,26.5-35.2"/>
<path class="st0" d="M1583.1,100.6c-6.1-4.3-13-3.8-19.6-3.1c-18.8,1.7-37.6,3.5-56.2,5.8c-27.9,3.3-56.2,3.8-84.3,5.1
	c-29.7,1.5-59.4,1.3-89.1,3.3c-16,1.2-32.1,2.3-48.1,3.3c-17.7,1.2-35.3,1.7-53,3.3c-57,5.5-113.9,6.3-170.9,6.6
	c-40.1,0.3-80.2,2.6-120.4,4.8c-27.9,1.5-55.7,5.9-83.5,5.9c-17.7,0-32.6,6.1-48.1,12.2c-39.5,15.2-79,30.4-118.8,44.8
	c-52,18.7-103,40.1-154.1,61.1c-49.8,20.5-100,39.8-150.1,59.5c-30.2,11.7-60.3,23.6-90.7,34.9c-5.5,2-12.2,4.1-14.6,11.2"/>
<path class="st0" d="M684,370.6c-2-4.6-1-9.6,1-14.6c13-7,29-5,43-6c68-3,136,0,204-1c54-2,109-8,163-8c5,0,11,0,16,0c5,1,10,0,15-2
	c61-27,119-55,178-87c9-4,18-8,27-12c1-1,3-2,4-3c44-19,85-39,127-63c4-3,8-5,12-8c3-2,6-2,9-4c16-10,30-18,46-28c14-7,26-15,40-23
	c1-1,3,0,4-1c6-3,9-8,15-11c4-2,8,0,9,4c1,5-1,10-3,15c-2,4-6,5-9,8c-42,28-86,42-129,66c-7,4-14,6-21,10c-10,6-20,11-31,17
	c-13,7-26,12-39,19c-33,17-65,33-98,49c-4,3-8,5-12,8c-3,2-6,2-9,4c-3,3-3,7-3,11c6,51,18,99,33,149c6,20,13,39,27,55
	c6,2,13,3,20.2,2.6"/>
<path class="st0" d="M659.2,596.6C654,601,653,606,654,612c3,17,1,34-4,50c-11,34-34,61-61,85c-9,7-18,14-24.2,23.2"/>
<path class="st0" d="M1114.1,343.4c2.6,12.2,2.2,11.9-9.6,12.6c-33.7,1.7-67.4,2.1-101.1,3.5c-26.5,1-53,2.3-79.4,3.1
	c-40.9,1.3-81.8,1.7-122.8,3.5c-37.2,1.8-74.5,3.6-111.5,6.3c-1.1,0-2.1,0.5-3.2,0.8"/>
<path class="st0" d="M594.2,356.6c-8.7-2.8-17.3,0.5-25.7,1.5c-8,1-16.2,1.3-24.2,2.1c-9.8,1.2-19.7,2-29.7,2.5
	c-15.6,0.5-31,2.8-46.5,3.8c-15.2,1.2-30.5,2.3-45.7,2.5c-32.1,0.2-64.2-0.2-96.3-0.8c-12-0.3-24.2-0.7-36.3-3.6
	c-4.5-1.2-6.3-6.3-11.1-5.3"/>
<path class="st0" d="M987.4,178.7c5.5,0.8,12.2-0.8,15.2,6.3c2.2,5.3-3,15-10.3,20.6c-11.1,8.6-23.4,14.5-36.1,19.7
	c-41.2,17-84.3,28.6-126.8,41.3c-26,7.8-52.5,14.2-78.5,21.8c-5.3,1.5-9.6,1.5-14.4-0.2"/>
<path class="st0" d="M986.6,175.7c0.3,2.6-0.8,3.5-3.2,3.3c-20.2-0.8-37.4,8.3-54.6,17.3c-17.3,9.2-33.7,20.2-49.1,32.7
	c-15.9,12.9-35,19-54.4,24.1c-27.4,7.4-54.4,16.7-81,26.3c-1.3,0.5-2.4,0.7-3.2,1.8c-9,11.7-23.3,12.7-35.3,18
	c-21.2,9.4-43.2,17.7-60.7,33.5c-13,11.7-28.7,20.8-38.8,36c-2.2,3.3-5.5,6.3-9.5,7.4"/>
<path class="st1" d="M599.8,354.1c-2.7-0.2-4,0.7-4.2,4.1c-0.2,12.7-1.4,25.3-1.4,38c0,17.8,6.6,33.5,15.1,48.7
	c3.7,6.8,5.9,14.2,9,21.5c0.6,1.7,1.3,3.6,2.4,5c9.5,10.2,11.7,23.6,14.1,36.5c1.6,8.8,8.8,13.9,10.9,22.1
	c3.9,15.2,9.8,29.7,11.1,45.4c0.5,5.3,1.6,10.6-0.8,15.7c-0.5,1.2,1,3.3,1.4,5"/>
<path class="st0" d="M661.6,600.2c2.4,2.3,4.5,4.5,5,8.3c1,11.4,3.5,22.5,4,33.9c1.3,27.6-1.4,53.7-20.9,75.2
	c-4.8,5.3-4.5,13.7-11.2,18.2c-7.5,5-14.3,11.1-21.8,16.4c-7.5,5.3-15.9,9.4-23.1,15c-8.8,6.9-17,7.1-25.8,0.7"/>
<path class="st0" d="M634.3,517.6c-5.9,7.1-4.3,15.2-2.4,23.1c3,12.2,6.3,24.4,9.6,36.8c1.9,7.3,5.6,13.2,13.6,14.5"/>
<path class="st0" d="M623,424.3c6.3,5.1,5.5,13.2,6.7,20c1.3,6.3,2.4,12.7,4,18.8c1.8,6.4,0.2,10.9-2.9,15.9"/>
<path class="st0" d="M629.5,350c0,1.2,0.3,2.3,0,3.3c-7.9,19.7-5.9,40.6-7.7,61.1c-1,10.4-4.2,19.7-8.3,28.9"/>
<path class="st0" d="M645.5,721.6c-4.3-1.2-8.7,0.7-11.9,2.8c-6.9,4.5-13,3.3-19.4-0.3"/>
</svg>
