<?xml version="1.0" encoding="utf-8"?>
<!-- Generator: Adobe Illustrator 24.3.0, SVG Export Plug-In . SVG Version: 6.00 Build 0)  -->
<svg version="1.1" id="Layer_1" xmlns="http://www.w3.org/2000/svg" xmlns:xlink="http://www.w3.org/1999/xlink" x="0px" y="0px"
	 viewBox="0 0 1920 1080" style="enable-background:new 0 0 1920 1080;" xml:space="preserve">
<style type="text/css">
	.st0{fill:none;stroke:#D16C11;stroke-width:2;stroke-linecap:round;stroke-linejoin:round;}
</style>
<path class="st0" d="M176.6,961.9c-7.1-10.9-17.3-15.1-30.1-16c-42.7-3.1-81.6,4.4-112.8,36.6c-4.5,4.7-7.9,10.4-9,16
	c-1.5,7.5-1.4,14.9,8.9,19.4c12.5,5.4,24.8,8.7,38.3,9.1c57.6,2,113.7-8.5,169.8-19.1c85-16,169.7-35.1,257.1-31.6
	c26,1,51.6,2.7,76.5,13.3c11.7,5,24.3,6.1,31.5,18.1c-11.8,22.5-83.4,34.8-111.7,19c3.8-14,16.4-17,27.5-22
	c15.2-6.9,32-7.7,47.6-12.6"/>
<path class="st0" d="M1534.9,1022.2c8.6-2.8,15.4-7.7,22.6-13.8c68-57.7,88.8-138.9,110.5-219.5c18.1-67,27.9-135.6,33.2-204.7
	c1.4-18.3,1.9-37.1-1.2-55.5c-4.7-27.7-10.9-38.5-41.4-44c-31.4-5.6-63.4-7.8-95.1-11.6c-12.2-1.4-24.4-2.6-36.5-4.8
	c-23.7-4.4-44.9,0.6-63.5,16c-32.2,26.6-55.3,59.4-66.6,100c-1.2,4.2-2.6,8.4-3.1,12.7c-1.7,15.4,0.3,16.9,15.8,17.5
	c41.5,1.6,83.1,2.6,123.8,12.6c2.6,0.6,5.4,0.8,7.9,1.6c24,7.7,34.8,4.8,47.4-16c16.8-27.6,19.9-57.1,6.4-87.1
	c-7.7-17.1-25.4-14.6-39.6-17.2c-34-6.2-68.6-7.5-103.1-9.8"/>
<path class="st0" d="M1787.2,543c-8.5-9-10.1-21.4-15.9-31.7c-18.4-32.3-32.7-43.8-76.1-61.9c21.7-30.9,10.1-54.7-26.9-66.7
	c-16.6-5.4-33.6-7.6-50.8-6.1c-39.7,3.4-58.2,39.4-52.8,61.8c1.7,7,4.2,11.2,10.7,14.9c7.4-6,8.7-15.1,11.9-23
	c5.9-14.5,16.5-20.4,31.9-20.8c15.1-0.4,29.8,1.9,44.4,5.1c14.6,3.2,16.6,7.6,11.1,22.1c-6.3,16.8-4.5,24.5,12.8,26.4
	c48.2,5.1,59.9,39.7,68.2,78.3c12.3,57.2,12.5,114.9,8.1,173c-4.9,64-12.7,127.5-25.5,190.4c-4.3,21.3-9.6,42.4-19.3,61.8
	c-12.9,25.7-37.6,31.9-63.3,33.2c-30.6,1.5-60.8,5.6-90.3,13.3c-3.9,1-6.4,0-9.6-0.4"/>
<path class="st0" d="M1285.8,806.4c-15,37.2-18.6,76.3-20.7,115.8c-2,37.4,12.9,44.9,38.4,53.2c43.9,14.3,89.3,24.8,136.2,22.9
	c12.7-0.5,25.4-3,38.1,0.1c9.4,2.3,19.2,4,25.4,12.7c2.3,3.3,7.8,3.9,5.4,11.3c-2.1,6.3-6.3,6.8-10.1,7.5
	c-11.5,2.2-23.2,4.2-34.9,4.9c-49.7,2.7-99.5,5-147.6-12.5c-15.7-5.7-28.7-14.6-38-28.6c-1.3-2-1.6-5-3.3-6.2
	c-5.4-3.9-45.8,5.7-50.8,10.9c-9.4,9.7-17.4,20.9-30,27.1c-10.3,5.1-20.8,8.2-31.7,2.9c-5.8-2.8-10.4-3.3-16,0.1
	c-12.8,7.9-23.9,3.9-35-4.6c-11.7-8.9-20.2-19.7-25.3-33.4c-7.3-19.4-2.3-30.3,17.5-34.8c13-2.9,26.5-3.9,39.6-6.6
	c20.8-4.3,25.3-12.3,17.3-31.5c-3.5-8.3-4.9-15.1,3.4-20.7c8.3-5.6,17.7-4.7,25.2,0.2c12.5,8.3,15.6,22.1,15.9,36.2
	c0.4,16.9,0.1,33.9,0.1,52.7c24.2-2.6,30.7-20.9,37.8-37c10.4-23.6,5.7-48.3-12.7-61.4c-19.6-14-37.1-23.7-68.1-3.4
	c-6.4-25.5,8.2-42.4,25.1-58.2c-13.1-6.7-14.8-5.3-25.1,7.2c-9.9,12-6.8,26.7-10.8,39.9c-1.1,3.5-0.7,7.4-1,11
	c-8.4,0.6-14-5.1-19.5-8.4c-17.5-10.4-32.2-6-46.2,5.3c-21.7,17.6-30.7,40.1-25.6,68.2c3.6,20.2,10.1,38.9,22.4,55.5"/>
<path class="st0" d="M1481,822.3c-4.2,21.7-10.4,43.2-12.2,65.1c-2.1,24.9-1.7,50.2,12.1,73c11.4,18.7,21.3,20.8,36.5,6.3
	c12.9-12.3,21-28,26.9-44.4c20-55.5,35.6-112,38-171.3c0.9-21.6-8.9-34.4-30-42.8c-31.1-12.4-64.2-13.9-96.8-17.2
	c-22.1-2.2-44-7.4-66.7-3.7c-15.8,2.6-29.4,8.8-41.2,19.3c-25.2,22.4-39.4,52.3-55.2,81.1c-1.7,3-3.7,6.1-5.1,9.4"/>
<path class="st0" d="M1257.2,698.5c-2.1-19-5-38-6-57.1c-0.5-10-5.7-19.4-1.1-30.4c2-4.9-7.2-8.5-13.5-9.2
	c-19.6-2.2-39.1-4.9-58.7-6.3c-72.9-5.2-145.8-9.6-219-7.9c-5.3,0.1-10.9-2.4-16.5,3.4c0.5,28.6,5.4,58.7,10.7,88.5
	c17.5,99.5,35.7,198.9,61.3,296.8c8.5,32.4,9.7,33.9,42.9,31.6c5.9-0.4,11.6-2,17.5-3.1"/>
<path class="st0" d="M1803.1,606.5c24.7,68.1,45.4,137.3,53.6,209.5c4.7,41,2.2,81.3-14.8,120.9c-14.9,34.6-62.9,60.9-100.7,52.1"/>
<path class="st0" d="M1242.9,617.6c-25.5-6.7-51.8-6.1-77.8-7.7c-60.3-3.8-120.6-6.8-180.9-9.6c-16.9-0.8-33.9-0.1-49.1-0.1
	c-10.1,17.9-8.3,41.6-34.5,46.2c22.4,119.5,44.8,239,67.2,358.5c15.5-1,28.8-13.6,46.4-7.2c-17.1,26.3-43.1,27.8-68,25.6
	c-34.6-3.1-69-9.2-103.2-15.5c-53.1-9.8-106.3-16.5-160.3-19.2c-26-1.3-51.9-0.3-77.8,0.3c-3.6,0.1-7.2-0.5-9.5,3.2"/>
<path class="st0" d="M1833.2,184.4c3.9,19.4,11.4,37.8,10.1,58.7c-2.1,34.3-17.3,63.5-30.8,93.6c-3.9,8.6-9,16.7-12.5,25.5
	c-4.6,11.4-2.5,13.9,11,14.2c23.6,0.5,40.8-11.7,56-27.4c-9.2-23.2-26.4-26.5-39.9-7.3c-21.2,30.3-33.6,64.1-37,101.4
	c-3.2,34.4,0.8,68.8-1,103.2c-0.5,8.4,3.4,16.8,4.4,25.4c4.4,39.1,7.9,78.4,12.9,117.4c7.1,54.8,15,109.6,14,165
	c-0.6,32.4-7.1,63.4-26.7,90.5c-15,20.8-36,33.1-58.9,42.5c-3.5,1.4-8.4,4.1-12.6,0.2"/>
<path class="st0" d="M1434.9,508.1c-20.9,0.7-29,16.5-38.2,31.6c-11.8,19.3-19.8,40.6-23,62.1c-6.9,46.8-30.1,83.4-62.5,115.8
	c-13.9,13.9-24.3,30.5-29.9,49.2c-4.9,16.2-1.6,33,12.8,42.2c16.3,10.5,17.7,22.3,12.5,38.7c-5.1,16.4-4,33.7-3.2,50.7
	c0.3,7.2,1.6,14.2,6,20.8c8.7,12.7,17.2,14.7,28.7,4.6c14.4-12.7,20.2-30.4,27.1-47.5c5-12.4,8.6-25.1,11-38.1"/>
<path class="st0" d="M1817.4,28.9c-19.2-4.3-24.8,0.3-22,20.6c2.4,17.7,7.8,34.6,15.6,50.8c11.2,23.3,17.8,48.4,25.3,73
	c0.7,2.3,1.5,5.7-1.4,7.9"/>
<path class="st0" d="M170.3,960.3c-21.4,6-44.4,7.8-63.9,23.9c11.3,8.4,22.1,4.3,32.2,2.9c15.4-2.2,30.8-5.8,38-22.1
	c2.8-6.3,7.5-6.5,12.8-6.3c11.6,0.4,23.3,1,34.9,1.6"/>
<path class="st0" d="M1830.1,182.8c-6.6-12.1-14.6-23.2-25.5-31.5c-5.8-4.4-14.2-5.8-20.2-1.5c-5.8,4.2-6.3,11.4-3.5,18.8
	c7.3,19.7,23.7,28.8,41.5,36.3c5.1,2.1,10.1-1,14.2-4.6"/>
<path class="st0" d="M1085.9,785.8c4.7,9.5,5.2,20,6.2,30.2c3.4,33.9,21.1,45.6,54.1,34.9c2.1-0.7,4.2-1.1,6.3-1.6"/>
<path class="st0" d="M1530.2,747.7c-16.6,14.2-27.6,31.9-35.1,52.3c-3.4,9.4-9.6,17-18.8,22.4c-40.6,23.7-82.8,18.1-125.4,7.9
	c-17.8-4.3-17.9-3.9-27-12.8c20.9-13.8,48.8-4.2,50.8,17.5"/>
<path class="st0" d="M1157.3,833.4c-14.3-31.3-40.1-45.4-73-49.4c-1.8-0.2-3.2-3-4.8-4.6"/>
<path class="st0" d="M1533.3,739.7c1.6,25.9-13.8,43.3-30.1,60.4c-2.4,2.5-4.7,3.6-8,3.1"/>
</svg>
